<svg width="120" height="120" viewBox="0 0 120 120" xmlns="http://www.w3.org/2000/svg">
    <g fill="none" fill-rule="evenodd">
        <path d="M0 0h120v120H0z"/>
        <path d="m90 55-7.05-7.1L50 80.85l-12.95-12.9L30 75l20 20 40-40zm5-30H74.1C72 19.2 66.5 15 60 15s-12 4.2-14.1 10H25c-.7 0-1.35.05-2 .2-1.95.4-3.7 1.4-5.05 2.75-.9.9-1.65 2-2.15 3.2-.5 1.15-.8 2.45-.8 3.85v70c0 1.35.3 2.7.8 3.9.5 1.2 1.25 2.25 2.15 3.2 1.35 1.35 3.1 2.35 5.05 2.75.65.1 1.3.15 2 .15h70c5.5 0 10-4.5 10-10V35c0-5.5-4.5-10-10-10zm-35-1.25c2.05 0 3.75 1.7 3.75 3.75s-1.7 3.75-3.75 3.75-3.75-1.7-3.75-3.75 1.7-3.75 3.75-3.75zM95 105H25V35h70v70z" fill="#000" fill-rule="nonzero"/>
    </g>
</svg>
