<svg width="30" height="30" viewBox="0 0 30 30" xmlns="http://www.w3.org/2000/svg" xmlns:xlink="http://www.w3.org/1999/xlink">
    <defs>
        <path id="991rlj2dga" d="M0 0h30v30H0z"/>
    </defs>
    <g fill="none" fill-rule="evenodd">
        <path d="M19.759 11.055a.78.78 0 1 1 0-1.562.78.78 0 1 1 0 1.562m-4.76 8.796A4.85 4.85 0 0 1 10.15 15 4.85 4.85 0 1 1 15 19.85M18.97 8.373h-7.932a2.669 2.669 0 0 0-2.666 2.666v7.932a2.669 2.669 0 0 0 2.666 2.666h7.932a2.669 2.669 0 0 0 2.666-2.666v-7.932a2.669 2.669 0 0 0-2.666-2.666" fill="#FFF"/>
        <g>
            <mask id="9sfmcx3f7b" fill="#fff">
                <use xlink:href="#991rlj2dga"/>
            </mask>
            <path d="M22.525 18.97a3.564 3.564 0 0 1-3.555 3.555h-7.932a3.57 3.57 0 0 1-3.554-3.555v-7.932a3.564 3.564 0 0 1 3.554-3.555h7.932a3.559 3.559 0 0 1 3.555 3.555v7.932zm3.081-14.576A14.93 14.93 0 0 0 15 0C10.864 0 7.11 1.677 4.394 4.394A14.945 14.945 0 0 0 0 15c0 4.145 1.678 7.89 4.394 10.606A14.959 14.959 0 0 0 15 30a14.93 14.93 0 0 0 10.606-4.394A14.944 14.944 0 0 0 30 15c0-4.144-1.678-7.89-4.394-10.606z" fill="#FFF" mask="url(#9sfmcx3f7b)"/>
        </g>
        <path d="M15 11.154a3.846 3.846 0 0 0 0 7.692A3.843 3.843 0 0 0 18.846 15 3.848 3.848 0 0 0 15 11.154" fill="#FFF"/>
    </g>
</svg>
