<svg width="84" height="99" viewBox="0 0 84 99" xmlns="http://www.w3.org/2000/svg">
    <path d="M39.656 98.783V83.087C17.902 81.953.576 63.815.576 41.71.577 18.863 19.075.288 41.827.288c22.754 0 41.25 18.575 41.25 41.422 0 21.582-14.936 43.295-37.21 54.065l-6.21 3.008zm2.17-89.774c-17.975 0-32.565 14.65-32.565 32.7 0 18.051 14.59 32.701 32.566 32.701h6.513V84.44c15.805-10.029 26.053-26.51 26.053-42.73 0-18.05-14.59-32.7-32.566-32.7zm-4.341 50.14h8.684v8.721h-8.684v-8.72zm8.684-6.54h-8.684c0-14.17 13.026-13.08 13.026-21.8 0-4.796-3.908-8.72-8.684-8.72s-8.684 3.924-8.684 8.72h-8.684c0-9.636 7.772-17.44 17.368-17.44 9.596 0 17.368 7.804 17.368 17.44 0 10.9-13.026 11.99-13.026 21.8z" fill="#000" fill-rule="nonzero"/>
</svg>
