<svg width="116" height="116" viewBox="0 0 116 116" xmlns="http://www.w3.org/2000/svg">
    <g fill="none" fill-rule="evenodd">
        <path d="M0 0h116v116H0z"/>
        <path d="M57.952 9.667C31.272 9.667 9.667 31.32 9.667 58s21.605 48.333 48.285 48.333c26.728 0 48.381-21.653 48.381-48.333S84.68 9.667 57.952 9.667zm.048 87c-21.363 0-38.667-17.304-38.667-38.667 0-21.363 17.304-38.667 38.667-38.667 21.363 0 38.667 17.304 38.667 38.667 0 21.363-17.304 38.667-38.667 38.667zm2.417-62.834h-7.25v29l25.375 15.225 3.625-5.945-21.75-12.905V33.833z" fill="#000" fill-rule="nonzero"/>
    </g>
</svg>
