<svg width="31" height="30" viewBox="0 0 31 30" xmlns="http://www.w3.org/2000/svg">
    <g transform="translate(.927)" fill="none" fill-rule="evenodd">
        <circle fill="#000" cx="15" cy="15" r="15"/>
        <path d="M23 10.42a6.22 6.22 0 0 1-1.767.477 3.043 3.043 0 0 0 1.353-1.676c-.595.347-1.253.6-1.955.736A3.095 3.095 0 0 0 18.385 9c-1.987 0-3.447 1.825-2.998 3.72a8.783 8.783 0 0 1-6.343-3.166 3.005 3.005 0 0 0 .952 4.045 3.101 3.101 0 0 1-1.393-.379c-.034 1.403.988 2.716 2.468 3.009a3.132 3.132 0 0 1-1.39.051 3.074 3.074 0 0 0 2.875 2.104A6.258 6.258 0 0 1 8 19.639 8.812 8.812 0 0 0 12.718 21c5.713 0 8.941-4.75 8.746-9.011A6.212 6.212 0 0 0 23 10.42z" fill="#FFF" fill-rule="nonzero"/>
    </g>
</svg>
